<svg width="25" height="20" viewBox="0 0 25 20" fill="none" xmlns="http://www.w3.org/2000/svg">
<g clip-path="url(#clip0)">
<path d="M23.2114 18.6996L17.4016 12.8897C18.5035 11.5293 19.1669 9.79975 19.1669 7.9167C19.1669 3.55146 15.6154 0 11.2502 0C6.88491 0 3.3335 3.55146 3.3335 7.9167C3.3335 12.2819 6.88495 15.8334 11.2502 15.8334C13.1332 15.8334 14.8628 15.17 16.2232 14.0681L22.0331 19.878C22.1959 20.0407 22.4596 20.0407 22.6224 19.878L23.2115 19.2888C23.3742 19.1261 23.3742 18.8623 23.2114 18.6996ZM11.2502 14.1667C7.80374 14.1667 5.00018 11.3632 5.00018 7.9167C5.00018 4.47025 7.80374 1.66668 11.2502 1.66668C14.6967 1.66668 17.5002 4.47025 17.5002 7.9167C17.5002 11.3632 14.6967 14.1667 11.2502 14.1667Z" fill="#545454"/>
</g>
<defs>
<clipPath id="clip0">
<rect width="24" height="20" fill="white" transform="translate(0.666748)"/>
</clipPath>
</defs>
</svg>
