<svg width="355" height="182" viewBox="0 0 355 182" fill="none" xmlns="http://www.w3.org/2000/svg">
<path fill-rule="evenodd" clip-rule="evenodd" d="M68.6412 182C64.9639 182 61.5807 181.136 58.4918 179.407C55.4397 177.678 53.0127 175.287 51.2108 172.234C49.4089 169.181 48.508 165.742 48.508 161.917C48.508 158.091 49.4089 154.652 51.2108 151.599C53.0127 148.546 55.4397 146.174 58.4918 144.482C61.5807 142.753 64.9639 141.889 68.6412 141.889C72.3185 141.889 75.6832 142.753 78.7353 144.482C81.7875 146.174 84.1961 148.546 85.9612 151.599C87.7631 154.652 88.664 158.091 88.664 161.917C88.664 165.742 87.7631 169.181 85.9612 172.234C84.1961 175.287 81.7691 177.678 78.6802 179.407C75.628 181.136 72.2817 182 68.6412 182ZM68.6412 170.579C71.0682 170.579 72.9436 169.807 74.2674 168.262C75.5912 166.68 76.2532 164.565 76.2532 161.917C76.2532 159.232 75.5912 157.117 74.2674 155.572C72.9436 153.99 71.0682 153.199 68.6412 153.199C66.1774 153.199 64.2836 153.99 62.9597 155.572C61.6359 157.117 60.974 159.232 60.974 161.917C60.974 164.565 61.6359 166.68 62.9597 168.262C64.2836 169.807 66.1774 170.579 68.6412 170.579Z" fill="white"/>
<path fill-rule="evenodd" clip-rule="evenodd" d="M31.9373 155.958C31.9373 158.422 31.3673 160.666 30.2274 162.689C29.0874 164.675 27.3958 166.257 25.1527 167.434C22.9463 168.611 20.2619 169.2 17.0994 169.2H12.2454V181.614H0V142.551H17.0994C21.8799 142.551 25.5388 143.765 28.0761 146.192C30.6503 148.62 31.9373 151.875 31.9373 155.958ZM15.7204 159.544C18.2578 159.544 19.5264 158.349 19.5264 155.958C19.5264 153.567 18.2578 152.372 15.7204 152.372H12.2454V159.544H15.7204Z" fill="white"/>
<path d="M137.54 152.261V142.551H104.665V152.261H114.925V181.614H127.17V152.261H137.54Z" fill="white"/>
<path d="M185.32 142.551V152.261H174.95V181.614H162.704V152.261H152.445V142.551H185.32Z" fill="white"/>
<path fill-rule="evenodd" clip-rule="evenodd" d="M211.311 179.407C214.4 181.136 217.783 182 221.461 182C225.101 182 228.448 181.136 231.5 179.407C234.589 177.678 237.016 175.287 238.781 172.234C240.583 169.181 241.484 165.742 241.484 161.917C241.484 158.091 240.583 154.652 238.781 151.599C237.016 148.546 234.607 146.174 231.555 144.482C228.503 142.753 225.138 141.889 221.461 141.889C217.783 141.889 214.4 142.753 211.311 144.482C208.259 146.174 205.832 148.546 204.03 151.599C202.229 154.652 201.328 158.091 201.328 161.917C201.328 165.742 202.229 169.181 204.03 172.234C205.832 175.287 208.259 177.678 211.311 179.407ZM227.087 168.262C225.763 169.807 223.888 170.579 221.461 170.579C218.997 170.579 217.103 169.807 215.779 168.262C214.456 166.68 213.794 164.565 213.794 161.917C213.794 159.232 214.456 157.117 215.779 155.572C217.103 153.99 218.997 153.199 221.461 153.199C223.888 153.199 225.763 153.99 227.087 155.572C228.411 157.117 229.073 159.232 229.073 161.917C229.073 164.565 228.411 166.68 227.087 168.262Z" fill="white"/>
<path d="M259.691 181.614V142.551L271.954 142.551V158.966L283.134 142.551L296.997 142.551L283.538 161.255L297.879 181.614L283.299 181.614L271.954 164.702V181.614L259.691 181.614Z" fill="white"/>
<path fill-rule="evenodd" clip-rule="evenodd" d="M327.145 175.71H340.162L342.093 181.614H355L340.769 142.551H326.648L312.362 181.614H325.214L327.145 175.71ZM333.653 155.627L337.184 166.496H330.123L333.653 155.627Z" fill="white"/>
<path fill-rule="evenodd" clip-rule="evenodd" d="M168.613 50.3138C171.981 51.7964 175.718 52.6214 179.652 52.6214C194.517 52.6214 206.567 40.8417 206.567 26.3107C206.567 11.7797 194.517 0 179.652 0C164.787 0 152.736 11.7797 152.736 26.3107C152.736 31.1985 154.1 35.775 156.475 39.6966L138.87 57.3061C135.024 55.1039 130.57 53.8452 125.821 53.8452C111.293 53.8452 99.5168 65.6249 99.5168 80.1559C99.5168 94.6869 111.293 106.467 125.821 106.467C140.348 106.467 152.125 94.6869 152.125 80.1559C152.125 76.2431 151.271 72.5298 149.739 69.1923L168.613 50.3138ZM167.675 26.3107C167.675 32.267 172.712 37.6785 179.652 37.6785C186.592 37.6785 191.628 32.267 191.628 26.3107C191.628 20.3544 186.592 14.9429 179.652 14.9429C172.712 14.9429 167.675 20.3544 167.675 26.3107ZM114.456 80.1559C114.456 86.4341 119.544 91.5237 125.821 91.5237C132.097 91.5237 137.186 86.4341 137.186 80.1559C137.186 73.8776 132.097 68.7881 125.821 68.7881C119.544 68.7881 114.456 73.8776 114.456 80.1559Z" fill="white"/>
<path fill-rule="evenodd" clip-rule="evenodd" d="M207.791 80.1559C207.791 94.6869 219.567 106.467 234.095 106.467C248.622 106.467 260.398 94.6869 260.398 80.1559C260.398 65.6249 248.622 53.8452 234.095 53.8452C219.567 53.8452 207.791 65.6249 207.791 80.1559ZM222.73 80.1559C222.73 86.4341 227.818 91.5237 234.095 91.5237C240.371 91.5237 245.459 86.4341 245.459 80.1559C245.459 73.8776 240.371 68.7881 234.095 68.7881C227.818 68.7881 222.73 73.8776 222.73 80.1559Z" fill="white"/>
</svg>
