<svg width="282" height="40" viewBox="0 0 282 40" fill="none" xmlns="http://www.w3.org/2000/svg">
<path fill-rule="evenodd" clip-rule="evenodd" d="M18.7996 25.9959L29.2293 15.5251L24.9709 11.2499L14.731 21.5302C13.2915 20.7028 11.6239 20.2299 9.84626 20.2299C4.40832 20.2299 2.377e-07 24.6556 0 30.1149C-2.377e-07 35.5743 4.40832 40 9.84626 40C15.2842 40 19.6925 35.5743 19.6925 30.1149C19.6925 28.6449 19.3729 27.2498 18.7996 25.9959ZM9.84626 34.3859C7.49675 34.3859 5.59209 32.4737 5.59209 30.1149C5.59209 27.7562 7.49675 25.844 9.84626 25.844C12.1958 25.844 14.1004 27.7562 14.1004 30.1149C14.1004 32.4737 12.1958 34.3859 9.84626 34.3859Z" fill="#009DE0"/>
<path fill-rule="evenodd" clip-rule="evenodd" d="M29.9967 14.156C27.3989 14.156 25.5136 12.1229 25.5136 9.88506C25.5136 7.64725 27.3989 5.61412 29.9967 5.61412C32.5946 5.61412 34.4799 7.64726 34.4799 9.88506C34.4799 12.1229 32.5946 14.156 29.9967 14.156ZM29.9967 19.7701C24.4323 19.7701 19.9215 15.3444 19.9215 9.88506C19.9215 4.42569 24.4323 0 29.9967 0C35.5611 0 40.072 4.42569 40.072 9.88506C40.072 15.3444 35.5611 19.7701 29.9967 19.7701ZM50.3762 34.3859C48.0267 34.3859 46.122 32.4737 46.122 30.1149C46.122 27.7562 48.0267 25.844 50.3762 25.844C52.7257 25.844 54.6304 27.7562 54.6304 30.1149C54.6304 32.4737 52.7257 34.3859 50.3762 34.3859ZM50.3762 40C44.9383 40 40.53 35.5743 40.53 30.1149C40.53 24.6556 44.9383 20.2299 50.3762 20.2299C55.8142 20.2299 60.2225 24.6556 60.2225 30.1149C60.2225 35.5743 55.8142 40 50.3762 40Z" fill="#3D008A"/>
<path d="M107.278 17.025C107.278 18.365 106.97 19.585 106.354 20.685C105.738 21.765 104.824 22.625 103.612 23.265C102.42 23.905 100.97 24.225 99.2616 24.225H96.6391V30.975H90.0233V9.735H99.2616C101.844 9.735 103.821 10.395 105.192 11.715C106.583 13.035 107.278 14.805 107.278 17.025ZM98.5166 18.975C99.8874 18.975 100.573 18.325 100.573 17.025C100.573 15.725 99.8874 15.075 98.5166 15.075H96.6391V18.975H98.5166Z" fill="#3D008A"/>
<path d="M127.108 31.185C125.121 31.185 123.293 30.715 121.625 29.775C119.976 28.835 118.664 27.535 117.691 25.875C116.717 24.215 116.231 22.345 116.231 20.265C116.231 18.185 116.717 16.315 117.691 14.655C118.664 12.995 119.976 11.705 121.625 10.785C123.293 9.845 125.121 9.375 127.108 9.375C129.095 9.375 130.912 9.845 132.561 10.785C134.21 11.705 135.512 12.995 136.465 14.655C137.439 16.315 137.926 18.185 137.926 20.265C137.926 22.345 137.439 24.215 136.465 25.875C135.512 27.535 134.2 28.835 132.532 29.775C130.883 30.715 129.075 31.185 127.108 31.185ZM127.108 24.975C128.419 24.975 129.432 24.555 130.148 23.715C130.863 22.855 131.22 21.705 131.22 20.265C131.22 18.805 130.863 17.655 130.148 16.815C129.432 15.955 128.419 15.525 127.108 15.525C125.777 15.525 124.754 15.955 124.038 16.815C123.323 17.655 122.966 18.805 122.966 20.265C122.966 21.705 123.323 22.855 124.038 23.715C124.754 24.555 125.777 24.975 127.108 24.975Z" fill="#3D008A"/>
<path d="M164.332 9.735V15.015H158.729V30.975H152.113V15.015H146.57V9.735H164.332Z" fill="#3D008A"/>
<path d="M190.145 9.735V15.015H184.543V30.975H177.927V15.015H172.384V9.735H190.145Z" fill="#3D008A"/>
<path d="M209.671 31.185C207.685 31.185 205.857 30.715 204.188 29.775C202.539 28.835 201.228 27.535 200.254 25.875C199.281 24.215 198.794 22.345 198.794 20.265C198.794 18.185 199.281 16.315 200.254 14.655C201.228 12.995 202.539 11.705 204.188 10.785C205.857 9.845 207.685 9.375 209.671 9.375C211.658 9.375 213.476 9.845 215.125 10.785C216.774 11.705 218.075 12.995 219.029 14.655C220.002 16.315 220.489 18.185 220.489 20.265C220.489 22.345 220.002 24.215 219.029 25.875C218.075 27.535 216.764 28.835 215.095 29.775C213.446 30.715 211.638 31.185 209.671 31.185ZM209.671 24.975C210.983 24.975 211.996 24.555 212.711 23.715C213.426 22.855 213.784 21.705 213.784 20.265C213.784 18.805 213.426 17.655 212.711 16.815C211.996 15.955 210.983 15.525 209.671 15.525C208.34 15.525 207.317 15.955 206.602 16.815C205.887 17.655 205.529 18.805 205.529 20.265C205.529 21.705 205.887 22.855 206.602 23.715C207.317 24.555 208.34 24.975 209.671 24.975Z" fill="#3D008A"/>
<path d="M243.081 30.975L236.942 21.765V30.975H230.326V9.735H236.942V18.675L242.991 9.735H250.471L243.2 19.905L250.948 30.975H243.081Z" fill="#3D008A"/>
<path d="M273.802 27.765H266.769L265.726 30.975H258.782L266.501 9.735H274.13L281.818 30.975H274.845L273.802 27.765ZM272.193 22.755L270.285 16.845L268.378 22.755H272.193Z" fill="#3D008A"/>
<path d="M243.09 30.975L236.951 21.765V30.975H230.336V9.73499H236.951V18.675L243.001 9.73499H250.481L243.209 19.905L250.958 30.975H243.09Z" fill="#009DE0"/>
</svg>
